<?xml version="1.0" encoding="UTF-8" standalone="no"?>
<!DOCTYPE svg PUBLIC "-//W3C//DTD SVG 1.1//EN" "http://www.w3.org/Graphics/SVG/1.1/DTD/svg11.dtd">
<svg width="100%" height="100%" viewBox="0 0 372 372" version="1.1" xmlns="http://www.w3.org/2000/svg" xmlns:xlink="http://www.w3.org/1999/xlink" xml:space="preserve" xmlns:serif="http://www.serif.com/" style="fill-rule:evenodd;clip-rule:evenodd;stroke-linecap:round;">
    <g id="gopher" transform="matrix(0.766461,0,0,0.766461,-13.8448,-1.36801)">
        <g id="path4191" transform="matrix(1.48499,0,0,1.48499,-158.336,-204.087)">
            <path d="M295.607,179.177C302.569,173.053 308.637,170.65 314.071,173.371C318.051,175.364 317.175,180.736 314.22,184.851C310.697,189.756 307.428,192.307 307.225,192.299" style="fill:rgb(142,212,254);stroke:black;stroke-width:1.89px;"/>
        </g>
        <g id="path4201" transform="matrix(1.48499,0,0,1.48499,-158.336,-204.087)">
            <path d="M301.741,188.667C301.772,189.326 305.14,191.405 306.107,191.144C307.52,190.762 313.02,183.899 312.987,182.479C312.895,178.503 301.72,188.24 301.741,188.667Z" style="stroke:black;stroke-width:0.32px;stroke-linecap:butt;"/>
        </g>
        <g id="path4251" transform="matrix(1.48499,0,0,1.48499,-158.336,-204.087)">
            <path d="M310.474,252.199C311.67,251.076 314.367,250.646 316.243,249.769C319.959,248.028 322.332,245.343 321.543,243.771C320.755,242.199 317.103,242.336 313.387,244.077C311.592,244.918 309.878,245.62 308.26,245.787" style="fill:rgb(142,212,253);fill-rule:nonzero;stroke:black;stroke-width:1.6px;stroke-linejoin:bevel;"/>
        </g>
        <g id="path4235" transform="matrix(1.48499,0,0,1.48499,-158.336,-204.087)">
            <path d="M238.838,347.178C228.263,345.464 223.095,337.114 217.553,328.422C185.714,278.489 192.528,208.221 208.446,189.427C231.607,162.082 285.053,162.619 309,193.69C327.805,215.156 308.05,241.668 308.517,264.601C342.291,278.684 337.6,324.09 337.6,324.09C337.6,324.09 314.269,321.278 300.469,324.478C289.694,326.977 276.683,332.568 261.42,340.129C254.084,343.763 248.189,348.694 238.838,347.178Z" style="fill:rgb(142,212,253);stroke:black;stroke-width:3.2px;stroke-linecap:butt;"/>
        </g>
        <g id="path4183" transform="matrix(1.48499,0,0,1.48499,-158.336,-204.087)">
            <path d="M200.439,263.83C198.828,265.352 195.188,265.942 192.657,267.133C187.645,269.498 184.45,273.133 185.521,275.252C186.591,277.372 191.522,277.174 196.535,274.81C198.955,273.667 201.267,272.713 203.452,272.482" style="fill:rgb(142,212,253);fill-rule:nonzero;stroke:black;stroke-width:3.2px;stroke-linejoin:bevel;"/>
        </g>
        <g id="path4253" transform="matrix(1.48499,0,0,1.48499,-158.336,-204.087)">
            <path d="M313.107,267.436C305.249,263.32 295.288,265.456 295.288,265.456" style="fill:none;stroke:black;stroke-width:0.8px;stroke-linecap:butt;"/>
        </g>
        <g id="path4255" transform="matrix(1.48499,0,0,1.48499,-158.336,-204.087)">
            <path d="M229.464,338.069C235.061,346.805 230.937,357.005 236.057,358.224C240.245,359.221 244.719,349.412 249.333,342.036" style="fill:rgb(142,212,253);fill-rule:nonzero;stroke:black;stroke-width:3.2px;stroke-linejoin:bevel;"/>
        </g>
        <g id="path4212" transform="matrix(1.48499,0,0,1.48499,-158.336,-204.087)">
            <circle cx="249.646" cy="207.444" r="26.732" style="fill:white;stroke:black;stroke-width:2.4px;stroke-linejoin:round;"/>
        </g>
        <g id="circle4214" transform="matrix(1.48499,0,0,1.48499,-158.336,-204.087)">
            <ellipse cx="306.605" cy="220.62" rx="18.461" ry="19.336" style="fill:white;stroke:black;stroke-width:2.24px;stroke-linejoin:round;"/>
        </g>
        <g id="g4257" transform="matrix(1.48499,0,0,1.48499,-153.193,-203.544)">
            <path id="path4224" d="M268.582,239.056C267.696,241.962 268.024,248.826 268.024,248.826L276.404,251.348C276.404,251.348 280.286,246.777 280.759,245.123C281.233,243.469 281.03,242.558 281.03,242.558L268.582,239.056Z" style="fill:white;stroke:black;stroke-width:2.05px;stroke-linecap:butt;"/>
            <path id="path4222" d="M262.173,234.279C256.08,240.596 265.846,240.746 273.503,242.436C279.564,243.773 286.967,250.563 288.782,244.442C291.918,233.864 269.986,226.177 262.173,234.279Z" style="fill:rgb(211,183,141);stroke:black;stroke-width:2.05px;stroke-linecap:butt;"/>
            <g id="path4220" transform="matrix(0.949703,0.313152,0.313152,-0.949703,0,0)">
                <ellipse cx="336.136" cy="-134.211" rx="9.081" ry="5.198" style="stroke:black;stroke-width:1.54px;stroke-linejoin:bevel;"/>
            </g>
        </g>
        <g id="path4231" transform="matrix(1.48499,0,0,1.48499,-158.336,-204.087)">
            <circle cx="259.47" cy="213.613" r="7.083" style="stroke:black;stroke-width:1.83px;stroke-linejoin:round;"/>
        </g>
        <g id="circle4233" transform="matrix(1.48499,0,0,1.48499,-158.336,-204.087)">
            <circle cx="313.867" cy="227.007" r="5.425" style="stroke:black;stroke-width:1.4px;stroke-linejoin:round;"/>
        </g>
        <g id="path4189" transform="matrix(1.48499,0,0,1.48499,-158.336,-204.087)">
            <path d="M222.558,183.036C219.437,174.549 220.751,166.853 224.565,160.505C227.241,156.051 230.808,155.555 233.842,156.648C238.907,158.473 241.134,164.22 243.986,173.179" style="fill:rgb(142,212,254);stroke:black;stroke-width:2.33px;"/>
        </g>
        <g id="path4212-4" transform="matrix(1.48499,0,0,1.48499,-158.336,-204.087)">
            <path d="M230.932,178.974C231.563,179.486 235.692,177.567 236.784,176.998C238.96,175.865 236.889,166.103 235.096,164.808C231.128,161.941 230.523,178.643 230.932,178.974Z" style="stroke:black;stroke-width:0.39px;stroke-linecap:butt;"/>
        </g>
    </g>
    <g transform="matrix(0.279867,0.139035,0.139035,-0.279867,57.0486,331.034)">
        <g transform="matrix(1.48499,8.01915e-17,-8.01915e-17,1.48499,-242.439,-137.551)">
            <path d="M584.802,549.22C578.962,547.809 564.59,547.368 558.457,547.366C552.326,547.366 543.66,548.277 530.348,542.462C520.801,538.295 514.377,529.943 511.504,525.545C512.414,526.826 513.271,527.852 513.989,528.394C513.989,528.394 523.689,539.585 543.511,538.128C542.854,537.119 542.293,535.701 542.926,534.31C542.936,534.29 542.948,534.269 542.958,534.249C543.048,534.063 543.153,533.877 543.288,533.695L543.287,533.694C543.32,533.647 543.347,533.6 543.384,533.554C543.384,533.554 550.485,535.838 555.514,537.353C566.414,540.063 573.173,541.902 580.526,544.916C590.576,549.034 593.787,550.859 593.454,551.637C593.123,552.417 590.64,550.629 584.8,549.219" style="fill:rgb(0,87,120);fill-rule:nonzero;stroke:rgb(0,87,120);stroke-width:1px;stroke-linecap:butt;"/>
        </g>
        <g transform="matrix(3.645,2.59823,2.35243,-3.30018,87.3392,397.334)">
            <path d="M127.357,22.357L91.314,18.871C71.656,21.444 57.958,29.305 46.258,38.939C51.947,37.039 142.289,28.316 149.795,35.077C156.567,37.243 161.641,39.403 160.365,41.537L162.222,39.561C162.201,37.86 161.635,36.56 161.262,35.118L127.357,22.357Z" style="fill:white;"/>
        </g>
        <g transform="matrix(1.48499,8.01915e-17,-8.01915e-17,1.48499,-242.439,-137.551)">
            <path d="M513.993,528.4C513.276,527.858 512.419,526.832 511.508,525.551C507.935,520.516 503.539,511.453 503.539,511.453C510.148,521.244 530.976,529.507 543.291,533.7C543.158,533.884 543.05,534.069 542.962,534.255C542.952,534.275 542.94,534.296 542.93,534.316C542.297,535.707 542.858,537.125 543.515,538.134C523.694,539.591 513.993,528.4 513.993,528.4" style="fill:white;fill-rule:nonzero;"/>
        </g>
        <g transform="matrix(1.48499,8.01915e-17,-8.01915e-17,1.48499,-242.439,-137.551)">
            <path d="M580.532,544.92C573.171,541.904 566.418,540.064 555.509,537.359C550.487,535.84 543.38,533.556 543.38,533.556C543.347,533.6 543.325,533.656 543.292,533.7C530.986,529.509 510.175,521.249 503.545,511.471C503.813,512.015 508.037,520.673 511.506,525.551C514.377,529.953 520.796,538.301 530.342,542.47C543.657,548.279 552.327,547.37 558.46,547.37C564.59,547.37 578.958,547.814 584.801,549.222C590.644,550.63 593.129,552.426 593.46,551.639C593.793,550.863 590.577,549.044 580.533,544.92L580.532,544.92ZM651.076,571.761C636.564,570.32 607.473,559.843 607.473,559.843C554.344,573.635 491.305,575.187 413.967,528.124C399.531,519.332 386.338,510.241 374.131,500.973C361.935,491.704 350.727,482.269 340.271,472.801C335.748,468.721 329.949,463.488 324.982,458.466C299.883,450.096 288.74,457.923 254.249,453.389C226.953,449.797 216.355,440.484 210.346,433.166C209.57,431.059 209.647,429.208 211.066,428.077C214.326,425.461 219.359,426.769 228.916,427.478C238.462,428.177 252.931,427.944 262.475,421.979C268.629,418.155 271.422,408.908 272.443,403.797C270.432,401.664 273.39,389.274 270.087,384.738C263.476,375.659 257.818,366.953 250.693,359.501L247.189,356.128C246.851,342.165 244.827,331.468 241.116,324.038C234.673,316.103 227.77,316.275 220.412,324.461L209.315,342.282C209.315,342.282 166.625,308.498 145.481,300.225C74.28,272.352 34.173,305.092 18.103,314.748L18.091,314.726C-1.399,327.232 -27.254,331.368 -41.122,333.973C-54.993,336.578 -62.575,343.286 -65.535,345.803C-68.495,348.319 -70.769,352.555 -74.14,351.601C-75.003,351.357 -75.758,351.091 -76.301,350.581C-75.758,351.08 -75.003,351.346 -74.14,351.59C-73.619,345.57 -53.418,295.347 10.741,286.222C29.078,283.617 34.911,284.437 38.335,284.692C27.547,294.171 18.657,307.398 17.902,308.174C20.353,306.045 22.803,304.016 25.253,302.076C44.4,281.632 66.164,273.195 84.445,270.147C85.642,269.77 103.681,268.994 103.681,268.994C124.723,269.437 152.973,275.624 179.192,283.229C256.168,305.569 330.429,372.278 330.429,372.278C330.429,372.278 326.305,354.295 324.697,347.931C323.644,342.898 319.864,326.046 312.757,308.407C312.757,308.396 310.629,303.085 307.536,296.577C302.967,286.954 296.548,274.836 296.548,269.77C296.548,269.526 296.56,269.304 296.593,269.105C296.593,269.105 296.648,268.55 296.87,267.841C302.658,270.912 310.528,276.233 319.477,283.783C333.49,295.469 351.251,313.252 371.805,338.607C417.992,395.582 425.333,434.585 457.807,464.925C471.553,477.786 507.697,497.653 526.199,504.105C526.41,504.216 526.554,504.282 526.611,504.305C526.621,504.305 526.621,504.316 526.632,504.305L526.643,504.316C557.908,522.165 588.518,535.968 593.485,537.975C611.777,545.337 676.114,566.701 682.889,556.08L682.899,556.08C680.061,568.319 665.393,573.186 651.079,571.756" style="fill:rgb(0,142,151);fill-rule:nonzero;"/>
        </g>
        <g transform="matrix(1.48499,8.01915e-17,-8.01915e-17,1.48499,-242.439,-137.551)">
            <path d="M324.696,347.923C323.643,342.89 319.863,326.038 312.756,308.399C287.601,295.05 247.388,277.944 211.018,269.418C139.386,252.621 93.51,267.189 85.65,269.762L84.531,270.116C86.282,269.739 103.688,268.986 103.688,268.986C107.448,268.908 156.35,266.99 210.046,287.134C253.937,303.166 297.098,329.341 324.704,347.923" style="fill:white;fill-rule:nonzero;"/>
        </g>
        <g transform="matrix(1.48499,8.01915e-17,-8.01915e-17,1.48499,-242.439,-137.551)">
            <path d="M330.426,372.273C330.426,372.273 326.303,354.29 324.694,347.926C297.089,329.345 253.928,303.169 210.037,287.138C156.343,266.993 107.439,268.911 103.679,268.989C124.721,269.432 152.972,275.619 179.19,283.225C256.166,305.564 330.427,372.273 330.427,372.273" style="fill:rgb(0,87,120);fill-rule:nonzero;stroke:rgb(0,87,120);stroke-width:1px;stroke-linecap:butt;"/>
        </g>
        <g transform="matrix(1.48499,8.01915e-17,-8.01915e-17,1.48499,-242.439,-137.551)">
            <path d="M513.033,403.722C507.568,386.871 499.174,363.832 488.898,344.342C476.68,321.181 460.583,305.183 452.1,299.041C450.692,299.895 450.16,301.691 450.116,303.543C450.05,306.846 457.301,323.876 460.149,359.72C469.307,366.604 477.535,373.156 484.806,379.199C494.052,386.893 503.576,395.22 513.032,403.723" style="fill:rgb(0,142,151);fill-rule:nonzero;"/>
        </g>
        <g transform="matrix(1.48499,8.01915e-17,-8.01915e-17,1.48499,-242.439,-137.551)">
            <path d="M89.799,323.434C89.789,321.161 89.477,318.844 88.879,316.483C87.782,312.447 85.652,307.569 82.217,302.536C80.131,299.465 76.695,295.584 76.651,295.54C76.085,295.507 73.436,295.396 71.206,295.618C68.967,295.839 66.583,296.239 65.596,296.427L65.596,296.438C64.987,297.27 94.501,317.27 86.506,327.005C86.951,327.071 89.666,327.681 89.799,323.435" style="fill:rgb(0,87,120);fill-rule:nonzero;stroke:rgb(0,87,120);stroke-width:1px;stroke-linecap:butt;"/>
        </g>
        <g transform="matrix(1.48499,8.01915e-17,-8.01915e-17,1.48499,-242.439,-137.551)">
            <path d="M679.1,543.29C679.09,543.29 679.09,543.279 679.09,543.279C679.09,543.279 677.902,541.527 673.933,538.057C669.975,534.587 663.236,529.42 652.137,522.591C641.516,516.061 611.916,496.039 589.187,475.029C588.343,474.253 527.577,416.901 526.058,415.493C525.892,414.961 518.01,385.604 499.184,347.42C485.992,320.668 466.3,303.949 459.315,300.124C458.873,299.891 454.815,297.319 452.098,299.049C460.58,305.191 476.678,321.189 488.896,344.349C499.172,363.84 507.566,386.878 513.031,403.73C503.574,395.226 494.05,386.9 484.804,379.206C477.533,373.164 469.305,366.611 460.148,359.727C460.148,359.693 440.458,345.247 429.326,337.841C429.326,337.841 429.316,337.841 429.316,337.83C423.085,333.695 394.536,315.9 377.218,306.455C362.519,298.428 331.729,283.838 331.641,283.793L331.63,283.793C315.598,270.256 303.038,263.936 299.678,264.779C297.617,265.289 296.906,267.717 296.862,267.839C302.65,270.91 310.52,276.232 319.469,283.782C333.482,295.468 351.244,313.25 371.798,338.606C417.984,395.581 425.324,434.584 457.797,464.924C471.544,477.784 507.687,497.652 526.19,504.104C526.401,504.215 526.546,504.281 526.602,504.303C505.425,492.219 483.963,478.283 469.96,464.923C442.829,439.568 433.55,409.955 406.677,369.499L406,368.446C496.545,437.117 566.517,516.643 638.855,542.052C641.161,542.862 643.344,543.616 645.44,544.325C645.528,544.358 645.617,544.381 645.696,544.414C670.318,552.74 680.274,554.037 680.995,549.403C681.317,547.385 679.698,544.381 679.099,543.283" style="fill:rgb(0,87,120);fill-rule:nonzero;stroke:rgb(0,87,120);stroke-width:1px;stroke-linecap:butt;"/>
        </g>
        <g transform="matrix(1.48499,8.01915e-17,-8.01915e-17,1.48499,-242.439,-137.551)">
            <path d="M65.596,296.444L65.596,296.433C47.338,299.948 25.961,312.376 19.331,316.146C21.605,318.363 27.203,322.355 37.813,321.7C52.381,320.802 68.478,319.616 76.018,321.878C82.494,323.818 83.723,326.645 86.495,327.011L86.506,327.011C94.501,317.277 64.986,297.276 65.596,296.445" style="fill:rgb(0,142,151);fill-rule:nonzero;"/>
        </g>
        <g transform="matrix(1.48499,8.01915e-17,-8.01915e-17,1.48499,-242.439,-137.551)">
            <path d="M254.248,453.391C288.732,457.923 299.881,450.098 324.982,458.47C329.944,463.489 335.74,468.716 340.262,472.799C333.159,470.517 327.67,469.16 322.495,468.243C310.739,465.922 302.211,466.529 277.829,463.326C239.522,458.286 221.607,446.281 216.585,441.641C215.069,440.241 213.908,439.028 212.315,436.81C211.219,435.286 210.449,433.481 210.329,433.153C216.345,440.476 226.937,449.799 254.248,453.391" style="fill:rgb(0,87,120);fill-rule:nonzero;stroke:rgb(0,87,120);stroke-width:1px;stroke-linecap:butt;"/>
        </g>
        <g transform="matrix(-8.01915e-17,1.48499,-1.48499,-8.01915e-17,799.724,-3.16424)">
            <path d="M204.059,391.583C194.436,396.15 182.317,402.568 177.251,402.568C177.007,402.568 176.786,402.557 176.586,402.525C153.77,460.93 154.844,508.563 154.833,508.733C151.031,589.046 183.726,652.24 183.726,652.24C183.726,652.24 183.737,652.24 183.737,652.252C183.737,652.418 183.726,652.86 183.726,653.538C183.726,661.077 184.302,698.373 195.678,722.863C208.105,749.649 227.585,765.059 242.231,771.765C253.141,776.754 256.622,776.999 258.063,775.413C258.185,775.281 258.295,775.126 258.395,774.971C258.395,774.971 258.395,774.959 258.406,774.959C258.695,774.483 258.894,773.895 259.071,773.252C253.051,772.731 202.828,752.531 193.704,688.372C191.098,670.034 191.919,664.201 192.174,660.777C201.653,671.565 214.879,680.455 215.655,681.21C213.527,678.76 211.498,676.309 209.558,673.859C189.114,654.713 180.676,632.948 177.628,614.667C177.617,614.645 177.617,614.623 177.606,614.589L177.606,614.579L177.584,614.501L177.251,613.47C174.679,605.609 160.112,559.733 176.908,488.102C185.433,451.727 202.54,411.514 215.889,386.364C215.878,386.364 210.567,388.493 204.059,391.586" style="fill:rgb(0,87,120);fill-rule:nonzero;stroke:rgb(0,87,120);stroke-width:1px;stroke-linecap:butt;"/>
        </g>
    </g>
</svg>
